<svg width="21" height="21" viewBox="0 0 21 21" fill="none" xmlns="http://www.w3.org/2000/svg">
<path d="M15.4676 14.4299L19.1138 18.0752L17.9092 19.2798L14.2639 15.6337C12.9075 16.721 11.2205 17.3124 9.48209 17.3099C5.25279 17.3099 1.82031 13.8774 1.82031 9.6481C1.82031 5.4188 5.25279 1.98633 9.48209 1.98633C13.7114 1.98633 17.1439 5.4188 17.1439 9.6481C17.1463 11.3865 16.5549 13.0735 15.4676 14.4299ZM13.7599 13.7982C14.8401 12.687 15.4434 11.1978 15.4412 9.6481C15.4412 6.35609 12.7741 3.68894 9.48209 3.68894C6.19008 3.68894 3.52293 6.35609 3.52293 9.6481C3.52293 12.9401 6.19008 15.6073 9.48209 15.6073C11.0318 15.6094 12.521 15.0061 13.6322 13.9259L13.7599 13.7982Z" fill="#565E6C"/>
</svg>
