<svg width="21" height="21" viewBox="0 0 21 21" fill="none" xmlns="http://www.w3.org/2000/svg">
<g id="ri:search-line">
<path id="Vector" d="M15.4676 14.4304L19.1138 18.0757L17.9092 19.2803L14.2639 15.6341C12.9075 16.7215 11.2205 17.3128 9.48209 17.3104C5.25279 17.3104 1.82031 13.8779 1.82031 9.64859C1.82031 5.41929 5.25279 1.98682 9.48209 1.98682C13.7114 1.98682 17.1439 5.41929 17.1439 9.64859C17.1463 11.387 16.5549 13.074 15.4676 14.4304ZM13.7599 13.7987C14.8401 12.6875 15.4434 11.1983 15.4412 9.64859C15.4412 6.35658 12.7741 3.68943 9.48209 3.68943C6.19008 3.68943 3.52293 6.35658 3.52293 9.64859C3.52293 12.9406 6.19008 15.6078 9.48209 15.6078C11.0318 15.6099 12.521 15.0066 13.6322 13.9264L13.7599 13.7987Z" fill="#565E6C"/>
</g>
</svg>
