<svg width="25" height="25" viewBox="0 0 25 25" fill="none" xmlns="http://www.w3.org/2000/svg">
<path d="M11.5605 3.96185H5.63707C3.67421 3.96185 2.08301 5.55301 2.08301 7.5158V19.3624C2.08301 21.3252 3.67421 22.9163 5.63707 22.9163H17.4839C19.4468 22.9163 21.038 21.3252 21.038 19.3624L21.038 13.4391M8.00644 16.993L12.3167 16.1245C12.5455 16.0784 12.7556 15.9657 12.9206 15.8007L22.5696 6.14672C23.0322 5.68386 23.0319 4.9336 22.5689 4.47113L20.5249 2.42951C20.0621 1.96723 19.3122 1.96755 18.8497 2.43021L9.19978 12.0852C9.03509 12.2499 8.92264 12.4596 8.87649 12.6879L8.00644 16.993Z" stroke="white" stroke-width="2" stroke-linecap="round" stroke-linejoin="round"/>
</svg>
