<svg width="36" height="36" viewBox="0 0 36 36" fill="none" xmlns="http://www.w3.org/2000/svg">
<g id="Image">
<rect width="36" height="36" stroke="#BCC1CA"/>
<g id="Group">
<g id="Group_2">
<g id="Group_3">
<g id="Group_4">
<g id="Group_5">
<path id="Vector" d="M17.9966 8.72363L27.2845 18.0323L30.8394 14.4866L34.3851 18.0415L18.0035 1.62305L21.5492 5.17795L17.9966 8.72363Z" fill="#D10D10"/>
</g>
<g id="Group_6">
<path id="Vector_2" d="M14.4479 30.8303L18.0005 27.2846L8.71262 17.9736L5.15771 21.5217L17.9936 34.3852L14.4479 30.8303Z" fill="#061A8B"/>
</g>
<g id="Group_7">
<path id="Vector_3" d="M18.027 8.71582L14.479 5.16091L18.0339 1.61523L5.17041 14.4511L8.71609 18.0037L18.027 8.71582Z" fill="#061A8B"/>
</g>
<g id="Group_8">
<path id="Vector_4" d="M16.8536 2.78772L14.46 5.17634L18.007 8.73079L21.5615 5.18376L19.1729 2.79016C18.5331 2.14902 17.4947 2.14794 16.8536 2.78772Z" fill="black"/>
</g>
<g id="Group_9">
<path id="Vector_5" d="M5.18378 14.4302L2.79015 16.8188C2.14903 17.4586 2.14793 18.497 2.78772 19.1381L5.17632 21.5317L8.73081 17.9847L5.18378 14.4302Z" fill="#061A8B"/>
</g>
<g id="Group_10">
<path id="Vector_6" d="M27.2807 17.9961L17.9698 27.2863L21.5178 30.8412L17.9629 34.3869L34.3813 18.0053L30.8264 21.551L27.2807 17.9961Z" fill="#D10D10"/>
</g>
<g id="Group_11">
<path id="Vector_7" d="M30.8255 14.4604L27.271 18.0075L30.818 21.562L33.2117 19.1734C33.8528 18.5336 33.8539 17.4952 33.2141 16.8541L30.8255 14.4604Z" fill="#D10D10"/>
</g>
<g id="Group_12">
<path id="Vector_8" d="M17.9847 27.2715L14.4302 30.8185L16.8188 33.2121C17.4586 33.8533 18.497 33.8544 19.1381 33.2146L21.5317 30.826L17.9847 27.2715Z" fill="black"/>
</g>
</g>
</g>
</g>
</g>
</g>
</svg>
