<svg width="31" height="28" viewBox="0 0 31 28" fill="none" xmlns="http://www.w3.org/2000/svg">
<path d="M6.56113 21.14C7.83613 20.23 9.26113 19.5125 10.8361 18.9875C12.4111 18.4625 14.0611 18.2 15.7861 18.2C17.5111 18.2 19.1611 18.4625 20.7361 18.9875C22.3111 19.5125 23.7361 20.23 25.0111 21.14C25.8861 20.1833 26.5674 19.0983 27.0549 17.885C27.5424 16.6717 27.7861 15.3767 27.7861 14C27.7861 10.8967 26.6174 8.25417 24.2799 6.0725C21.9424 3.89083 19.1111 2.8 15.7861 2.8C12.4611 2.8 9.62988 3.89083 7.29238 6.0725C4.95488 8.25417 3.78613 10.8967 3.78613 14C3.78613 15.3767 4.02988 16.6717 4.51738 17.885C5.00488 19.0983 5.68613 20.1833 6.56113 21.14ZM15.7861 15.4C14.3111 15.4 13.0674 14.9275 12.0549 13.9825C11.0424 13.0375 10.5361 11.8767 10.5361 10.5C10.5361 9.12333 11.0424 7.9625 12.0549 7.0175C13.0674 6.0725 14.3111 5.6 15.7861 5.6C17.2611 5.6 18.5049 6.0725 19.5174 7.0175C20.5299 7.9625 21.0361 9.12333 21.0361 10.5C21.0361 11.8767 20.5299 13.0375 19.5174 13.9825C18.5049 14.9275 17.2611 15.4 15.7861 15.4ZM15.7861 28C13.7111 28 11.7611 27.6325 9.93613 26.8975C8.11113 26.1625 6.52363 25.165 5.17363 23.905C3.82363 22.645 2.75488 21.1633 1.96738 19.46C1.17988 17.7567 0.786133 15.9367 0.786133 14C0.786133 12.0633 1.17988 10.2433 1.96738 8.54C2.75488 6.83667 3.82363 5.355 5.17363 4.095C6.52363 2.835 8.11113 1.8375 9.93613 1.1025C11.7611 0.3675 13.7111 0 15.7861 0C17.8611 0 19.8111 0.3675 21.6361 1.1025C23.4611 1.8375 25.0486 2.835 26.3986 4.095C27.7486 5.355 28.8174 6.83667 29.6049 8.54C30.3924 10.2433 30.7861 12.0633 30.7861 14C30.7861 15.9367 30.3924 17.7567 29.6049 19.46C28.8174 21.1633 27.7486 22.645 26.3986 23.905C25.0486 25.165 23.4611 26.1625 21.6361 26.8975C19.8111 27.6325 17.8611 28 15.7861 28Z" fill="white"/>
</svg>
