<svg width="33" height="34" viewBox="0 0 33 34" fill="none" xmlns="http://www.w3.org/2000/svg">
<path d="M15.9961 7.72363L25.284 17.0323L28.8389 13.4866L32.3846 17.0415L16.003 0.623047L19.5487 4.17795L15.9961 7.72363Z" fill="#D10D10"/>
<path d="M12.4474 29.8303L16 26.2846L6.71213 16.9736L3.15723 20.5217L15.9931 33.3852L12.4474 29.8303Z" fill="#061A8B"/>
<path d="M16.0265 7.71582L12.4785 4.16091L16.0334 0.615234L3.16992 13.4511L6.7156 17.0037L16.0265 7.71582Z" fill="#061A8B"/>
<path d="M14.8536 1.78772L12.46 4.17634L16.007 7.73079L19.5615 4.18376L17.1729 1.79016C16.5331 1.14902 15.4947 1.14794 14.8536 1.78772Z" fill="black"/>
<path d="M3.18378 13.4302L0.790155 15.8188C0.149025 16.4586 0.147935 17.497 0.787723 18.1381L3.17632 20.5317L6.73081 16.9847L3.18378 13.4302Z" fill="#061A8B"/>
<path d="M25.2807 16.9961L15.9698 26.2863L19.5178 29.8412L15.9629 33.3869L32.3813 17.0053L28.8264 20.551L25.2807 16.9961Z" fill="#D10D10"/>
<path d="M28.826 13.4604L25.2715 17.0075L28.8185 20.562L31.2121 18.1734C31.8533 17.5336 31.8544 16.4952 31.2146 15.8541L28.826 13.4604Z" fill="#D10D10"/>
<path d="M15.9842 26.271L12.4297 29.818L14.8183 32.2117C15.4581 32.8528 16.4965 32.8539 17.1376 32.2141L19.5312 29.8255L15.9842 26.271Z" fill="black"/>
</svg>
