<svg width="31" height="28" viewBox="0 0 31 28" fill="none" xmlns="http://www.w3.org/2000/svg">
<path id="icon" d="M6.56064 21.14C7.83564 20.23 9.26064 19.5125 10.8356 18.9875C12.4106 18.4625 14.0606 18.2 15.7856 18.2C17.5106 18.2 19.1606 18.4625 20.7356 18.9875C22.3106 19.5125 23.7356 20.23 25.0106 21.14C25.8856 20.1833 26.5669 19.0983 27.0544 17.885C27.5419 16.6717 27.7856 15.3767 27.7856 14C27.7856 10.8967 26.6169 8.25417 24.2794 6.0725C21.9419 3.89083 19.1106 2.8 15.7856 2.8C12.4606 2.8 9.62939 3.89083 7.29189 6.0725C4.95439 8.25417 3.78564 10.8967 3.78564 14C3.78564 15.3767 4.02939 16.6717 4.51689 17.885C5.00439 19.0983 5.68564 20.1833 6.56064 21.14ZM15.7856 15.4C14.3106 15.4 13.0669 14.9275 12.0544 13.9825C11.0419 13.0375 10.5356 11.8767 10.5356 10.5C10.5356 9.12333 11.0419 7.9625 12.0544 7.0175C13.0669 6.0725 14.3106 5.6 15.7856 5.6C17.2606 5.6 18.5044 6.0725 19.5169 7.0175C20.5294 7.9625 21.0356 9.12333 21.0356 10.5C21.0356 11.8767 20.5294 13.0375 19.5169 13.9825C18.5044 14.9275 17.2606 15.4 15.7856 15.4ZM15.7856 28C13.7106 28 11.7606 27.6325 9.93564 26.8975C8.11064 26.1625 6.52314 25.165 5.17314 23.905C3.82314 22.645 2.75439 21.1633 1.96689 19.46C1.17939 17.7567 0.785645 15.9367 0.785645 14C0.785645 12.0633 1.17939 10.2433 1.96689 8.54C2.75439 6.83667 3.82314 5.355 5.17314 4.095C6.52314 2.835 8.11064 1.8375 9.93564 1.1025C11.7606 0.3675 13.7106 0 15.7856 0C17.8606 0 19.8106 0.3675 21.6356 1.1025C23.4606 1.8375 25.0481 2.835 26.3981 4.095C27.7481 5.355 28.8169 6.83667 29.6044 8.54C30.3919 10.2433 30.7856 12.0633 30.7856 14C30.7856 15.9367 30.3919 17.7567 29.6044 19.46C28.8169 21.1633 27.7481 22.645 26.3981 23.905C25.0481 25.165 23.4606 26.1625 21.6356 26.8975C19.8106 27.6325 17.8606 28 15.7856 28Z" fill="white"/>
</svg>
