<svg width="21" height="21" viewBox="0 0 21 21" fill="none" xmlns="http://www.w3.org/2000/svg">
<g id="notification-alarm-2--android-phone-mobile-device-smartphone-iphone-alert-bell-alarm" clip-path="url(#clip0_298_409)">
<g id="notification-alarm-2--android-phone-mobile-device-smartphone-iphone-alert-bell-alarm_2">
<path id="Vector" d="M16.125 8.25C18.196 8.25 19.875 6.57107 19.875 4.5C19.875 2.42893 18.196 0.75 16.125 0.75C14.0539 0.75 12.375 2.42893 12.375 4.5C12.375 6.57107 14.0539 8.25 16.125 8.25Z" stroke="black" stroke-linecap="round" stroke-linejoin="round"/>
<path id="Vector_2" d="M14.899 12V14.3004C14.899 14.887 15.132 15.4497 15.5469 15.8646C15.9617 16.2793 16.6634 16.5124 17.25 16.5124H0.75C1.33669 16.5124 2.03832 16.2793 2.45318 15.8646C2.86802 15.4497 3.10108 14.887 3.10108 14.3004L3.10107 8.89893C3.10107 7.33445 3.72256 5.83402 4.82883 4.72776C5.93509 3.62149 7.43552 3 9 3" stroke="black" stroke-linecap="round" stroke-linejoin="round"/>
<path id="Vector_3" d="M7.5 20.25H10.5" stroke="black" stroke-linecap="round" stroke-linejoin="round"/>
</g>
</g>
<defs>
<clipPath id="clip0_298_409">
<rect width="21" height="21" fill="white"/>
</clipPath>
</defs>
</svg>
