<svg width="25" height="25" viewBox="0 0 25 25" fill="none" xmlns="http://www.w3.org/2000/svg">
<g id="user-profile-add-01">
<path id="Icon" d="M1.48779 22.3122C1.48773 22.8645 1.9354 23.3123 2.48768 23.3123C3.03996 23.3124 3.48773 22.8647 3.48779 22.3124L1.48779 22.3122ZM2.48821 18.5932L3.48821 18.5933L2.48821 18.5932ZM13.061 15.8748C13.6132 15.8748 14.061 15.4271 14.061 14.8748C14.061 14.3226 13.6132 13.8748 13.061 13.8748V15.8748ZM22.3902 17.1144C22.9425 17.1144 23.3902 16.6667 23.3902 16.1144C23.3902 15.5621 22.9425 15.1144 22.3902 15.1144V17.1144ZM16.7927 15.1144C16.2404 15.1144 15.7927 15.5621 15.7927 16.1144C15.7927 16.6667 16.2404 17.1144 16.7927 17.1144V15.1144ZM18.5914 18.9033C18.5914 19.4556 19.0392 19.9033 19.5914 19.9033C20.1437 19.9033 20.5914 19.4556 20.5914 18.9033H18.5914ZM20.5914 13.3252C20.5914 12.7729 20.1437 12.3252 19.5914 12.3252C19.0392 12.3252 18.5914 12.7729 18.5914 13.3252H20.5914ZM13.9268 6.19775C13.9268 7.696 12.7071 8.9165 11.1951 8.9165V10.9165C13.8051 10.9165 15.9268 8.80712 15.9268 6.19775H13.9268ZM11.1951 8.9165C9.68315 8.9165 8.4634 7.696 8.4634 6.19775H6.4634C6.4634 8.80712 8.58514 10.9165 11.1951 10.9165V8.9165ZM8.4634 6.19775C8.4634 4.69951 9.68315 3.479 11.1951 3.479V1.479C8.58514 1.479 6.4634 3.58838 6.4634 6.19775H8.4634ZM11.1951 3.479C12.7071 3.479 13.9268 4.69951 13.9268 6.19775H15.9268C15.9268 3.58838 13.8051 1.479 11.1951 1.479V3.479ZM3.48779 22.3124L3.48821 18.5933L1.48821 18.5931L1.48779 22.3122L3.48779 22.3124ZM6.21992 13.8748C3.61016 13.8748 1.48851 15.9839 1.48821 18.5931L3.48821 18.5933C3.48838 17.0952 4.70808 15.8748 6.21992 15.8748V13.8748ZM6.21992 15.8748H13.061V13.8748H6.21992V15.8748ZM22.3902 15.1144H19.5914V17.1144H22.3902V15.1144ZM19.5914 15.1144H16.7927V17.1144H19.5914V15.1144ZM20.5914 18.9033V16.1144H18.5914V18.9033H20.5914ZM20.5914 16.1144V13.3252H18.5914V16.1144H20.5914Z" fill="#FFFEFE"/>
</g>
</svg>
