<svg width="27" height="27" viewBox="0 0 27 27" fill="none" xmlns="http://www.w3.org/2000/svg">
<g id="mdi:user-box-outline">
<path id="Vector" d="M21.375 21.375H5.625V5.625H21.375M21.375 3.375H5.625C5.02826 3.375 4.45597 3.61205 4.03401 4.03401C3.61205 4.45597 3.375 5.02826 3.375 5.625V21.375C3.375 21.9717 3.61205 22.544 4.03401 22.966C4.45597 23.3879 5.02826 23.625 5.625 23.625H21.375C21.9717 23.625 22.544 23.3879 22.966 22.966C23.3879 22.544 23.625 21.9717 23.625 21.375V5.625C23.625 5.02826 23.3879 4.45597 22.966 4.03401C22.544 3.61205 21.9717 3.375 21.375 3.375ZM18.5625 18.2812C18.5625 16.5938 15.1875 15.75 13.5 15.75C11.8125 15.75 8.4375 16.5938 8.4375 18.2812V19.125H18.5625M13.5 13.7812C14.1713 13.7812 14.8152 13.5146 15.2899 13.0399C15.7646 12.5652 16.0312 11.9213 16.0312 11.25C16.0312 10.5787 15.7646 9.93484 15.2899 9.46014C14.8152 8.98543 14.1713 8.71875 13.5 8.71875C12.8287 8.71875 12.1848 8.98543 11.7101 9.46014C11.2354 9.93484 10.9688 10.5787 10.9688 11.25C10.9688 11.9213 11.2354 12.5652 11.7101 13.0399C12.1848 13.5146 12.8287 13.7812 13.5 13.7812Z" fill="black"/>
</g>
</svg>
